<svg width="128" height="128" viewBox="0 0 128 128" xmlns="http://www.w3.org/2000/svg">
  <!-- Background circle -->
  <circle cx="64" cy="64" r="60" fill="#007ACC" stroke="#ffffff" stroke-width="2"/>
  
  <!-- File document shape -->
  <path d="M35 25 L35 103 L93 103 L93 40 L78 25 Z" fill="#ffffff" stroke="none"/>
  <path d="M78 25 L78 40 L93 40" fill="none" stroke="#007ACC" stroke-width="2"/>
  
  <!-- Pencil/Edit icon -->
  <g transform="translate(70, 70)">
    <!-- Pencil body -->
    <rect x="0" y="0" width="3" height="20" rx="1" fill="#FF6B35" transform="rotate(45 1.5 1.5)"/>
    <!-- Pencil tip -->
    <polygon points="0,0 3,3 6,0" fill="#333333" transform="rotate(45 1.5 1.5)"/>
    <!-- Edit lines -->
    <line x1="-5" y1="15" x2="5" y2="15" stroke="#007ACC" stroke-width="1.5"/>
    <line x1="-3" y1="18" x2="7" y2="18" stroke="#007ACC" stroke-width="1.5"/>
  </g>
  
  <!-- Rename arrows -->
  <g transform="translate(45, 75)">
    <!-- Curved arrow -->
    <path d="M0 0 Q5 -5 10 0" fill="none" stroke="#FF6B35" stroke-width="2" stroke-linecap="round"/>
    <polygon points="8,2 12,0 8,-2" fill="#FF6B35"/>
  </g>
</svg>